# xmcd
#
# Track frame offsets:
#	150
#	16125
#	34837
#	54037
#	70799
#	90449
#	105186
#	122248
#	140885
#	157985
#
# Disc length: 2400 seconds
#
# Revision: 0
# Processed by: cddbd v1.4PL0 Copyright (c) Steve Scherf et al.
# Submitted via: dBpowerAMP V4.0
#
DISCID=73095e0a
DTITLE=นกข้าวนึ่ง - ร่วมสร้างสรรค์
DYEAR=2003
DGENRE=Country
TTITLE0=สองคนกับหมา
TTITLE1=นิราศลมหนาว
TTITLE2=รักแอบแอบ
TTITLE3=บนทางฝัน
TTITLE4=ป่าไม้ไปไหน
TTITLE5=เก็บคำสัญญา
TTITLE6=เอิ้นหาน้อง
TTITLE7=บุญมีหมาเมิน
TTITLE8=ทะเลชีวิต
TTITLE9=ร่วมสร้างสรรค์
EXTD=
EXTT0=
EXTT1=
EXTT2=
EXTT3=
EXTT4=
EXTT5=
EXTT6=
EXTT7=
EXTT8=
EXTT9=
PLAYORDER=
